<?xml version="1.0" encoding="UTF-8" standalone="no"?>
<svg
   width="48pt"
   height="48pt"
   version="1.1"
   viewBox="0 0 48.000001 48"
   id="svg2"
   sodipodi:docname="favicon.svg"
   xml:space="preserve"
   inkscape:version="1.3.2 (091e20e, 2023-11-25)"
   xmlns:inkscape="http://www.inkscape.org/namespaces/inkscape"
   xmlns:sodipodi="http://sodipodi.sourceforge.net/DTD/sodipodi-0.dtd"
   xmlns="http://www.w3.org/2000/svg"
   xmlns:svg="http://www.w3.org/2000/svg"><defs
     id="defs2" /><sodipodi:namedview
     id="namedview2"
     pagecolor="#ffffff"
     bordercolor="#ffffff"
     borderopacity="1"
     inkscape:showpageshadow="0"
     inkscape:pageopacity="0"
     inkscape:pagecheckerboard="1"
     inkscape:deskcolor="#d1d1d1"
     inkscape:document-units="pt"
     inkscape:zoom="3.9916534"
     inkscape:cx="-17.787115"
     inkscape:cy="19.290252"
     inkscape:window-width="1472"
     inkscape:window-height="891"
     inkscape:window-x="0"
     inkscape:window-y="44"
     inkscape:window-maximized="0"
     inkscape:current-layer="layer1"><inkscape:page
       x="0"
       y="0"
       width="48"
       height="48"
       id="page1"
       margin="0"
       bleed="0" /></sodipodi:namedview><g
     inkscape:groupmode="layer"
     id="layer1"
     inkscape:label="Layer 1"
     transform="translate(-669.82391,-444.21872)"><g
       id="g4"
       transform="matrix(0.69541836,0,0,0.69541836,312.41633,120.98742)"
       inkscape:label="Ideogram"
       style="fill:#f8f8f8;fill-opacity:1"><path
         style="display:inline;fill:#f8f8f8;fill-opacity:1"
         d="m 519.06524,529.76349 c 0.36725,-0.3283 2.96603,-2.33315 5.77506,-4.45524 3.64456,-2.75328 5.7926,-3.86162 7.5,-3.86981 1.31597,-0.006 2.86419,-0.31004 3.44048,-0.67494 0.72258,-0.45752 0.91519,-1.48076 0.62053,-3.29654 -0.23501,-1.4482 -0.23133,-2.82905 0.008,-3.06855 0.23951,-0.23951 0.84898,-0.0923 1.35439,0.32716 0.63861,0.53 1.02836,0.47082 1.27769,-0.19401 0.19732,-0.52615 0.37093,-2.91896 0.3858,-5.31735 0.0149,-2.3984 0.23903,-4.57272 0.49814,-4.83183 0.25912,-0.25911 1.2013,-0.58255 2.09375,-0.71875 0.89244,-0.13619 1.78044,-0.40544 1.97332,-0.59832 0.19289,-0.19289 0.63172,-3.9514 0.97519,-8.35226 0.34347,-4.40086 0.73319,-11.99058 0.86605,-16.86605 0.13286,-4.87547 0.4739,-9.09683 0.75786,-9.38079 0.28396,-0.28396 0.64886,-0.37566 0.81089,-0.20379 0.16202,0.17188 0.49816,3.6875 0.74697,7.8125 0.2488,4.125 0.64516,11.04375 0.88079,15.375 0.23562,4.33125 0.80027,8.63438 1.25476,9.5625 0.45449,0.92813 1.45856,1.6875 2.23127,1.6875 0.77271,0 1.82297,0.39051 2.33391,0.86781 0.51736,0.48328 0.7993,1.97873 0.63629,3.375 -0.19198,1.64446 0.0252,2.50719 0.63119,2.50719 0.70322,0 0.68686,0.2856 -0.0685,1.19573 -0.84397,1.01692 -0.74583,1.38168 0.65629,2.43931 1.18699,0.89535 1.68302,2.12059 1.77138,4.37551 0.12272,3.13193 0.12272,3.13193 3.93938,3.65561 2.09916,0.28803 4.49165,0.78466 5.31665,1.10364 1.18511,0.45821 1.26383,0.66198 0.375,0.97066 -0.61875,0.21488 -1.63125,0.54263 -2.25,0.72833 -0.61875,0.1857 1.82813,0.16487 5.4375,-0.0463 6.5625,-0.38393 6.5625,-0.38393 6.5625,3.10544 0,3.48937 0,3.48937 -29.73023,3.43595 -16.35163,-0.0294 -29.42976,-0.32202 -29.0625,-0.65031 z"
         id="path28" /><path
         style="display:none;fill:#f8f8f8;fill-opacity:1"
         d="m 519.08755,529.74117 c 0.35498,-0.31602 2.94372,-2.31083 5.75275,-4.43292 4.36603,-3.29831 5.59068,-3.85833 8.4375,-3.85833 3.33017,0 3.33017,0 3.33017,-3.84183 0,-3.32993 0.1499,-3.71743 1.125,-2.90817 0.90626,0.75213 1.14721,0.73353 1.23924,-0.0957 0.0628,-0.56613 0.19265,-1.36683 0.28848,-1.77933 0.0958,-0.4125 0.21319,-2.49506 0.26077,-4.62791 0.0812,-3.64134 0.21912,-3.90703 2.26024,-4.35534 1.33894,-0.29408 2.36368,-1.10903 2.66835,-2.12209 0.27203,-0.90456 0.63425,-4.68216 0.80492,-8.39466 0.17067,-3.7125 0.43087,-10.71408 0.57822,-15.55906 0.14735,-4.84499 0.49445,-9.03561 0.77134,-9.3125 0.27689,-0.27689 0.65121,-0.35567 0.83181,-0.17507 0.1806,0.1806 0.49431,4.20248 0.69712,8.9375 0.20281,4.73502 0.61667,11.79916 0.91969,15.6981 0.30302,3.89893 0.91744,7.7813 1.36538,8.62749 0.4787,0.90431 1.50276,1.50278 2.48417,1.45179 0.99016,-0.0514 1.84075,0.45209 2.08993,1.23718 0.23111,0.72815 0.44276,3.21294 0.47033,5.52174 0.043,3.6039 0.2514,4.19783 1.47258,4.19783 1.18039,0 1.42243,0.5598 1.42243,3.28984 0,3.28984 0,3.28984 3.5625,3.79272 1.95938,0.27659 4.15313,0.67515 4.875,0.8857 0.72188,0.21055 1.3125,0.67411 1.3125,1.03012 0,0.35601 -0.75937,0.78817 -1.6875,0.96036 -0.92812,0.17218 1.26563,0.14552 4.875,-0.0592 6.5625,-0.3723 6.5625,-0.3723 6.5625,3.12707 0,3.49937 0,3.49937 -29.70792,3.41931 -16.33935,-0.044 -29.41748,-0.33861 -29.0625,-0.65463 z"
         id="path25" /><path
         style="display:none;fill:#f8f8f8;fill-opacity:1"
         d="m 523.2988,526.53773 c 2.5763,-2.06472 5.46552,-4.05414 6.4205,-4.42092 0.95497,-0.36679 2.8956,-0.66689 4.3125,-0.66689 2.57617,0 2.57617,0 2.58766,-3.9375 0.008,-2.72241 0.2268,-3.59703 0.70922,-2.83422 0.38375,0.6068 0.94125,0.85976 1.23888,0.56213 0.29763,-0.29763 0.62535,-1.30035 0.72828,-2.22828 0.10292,-0.92792 0.21526,-3.26344 0.24963,-5.19004 0.0577,-3.23499 0.22876,-3.53942 2.23623,-3.98034 1.3078,-0.28724 2.3932,-1.1326 2.72467,-2.12209 0.30302,-0.90456 0.64007,-4.63051 0.74899,-8.27988 0.10893,-3.64937 0.57033,-7.0075 1.02533,-7.4625 0.45501,-0.455 0.82728,-1.28595 0.82728,-1.84654 0,-0.5606 -0.29062,-0.83965 -0.64583,-0.62012 -0.35521,0.21953 -0.5849,-1.6168 -0.51042,-4.08074 0.0745,-2.46393 0.19636,-5.99863 0.27083,-7.85488 0.0745,-1.85625 0.4182,-3.375 0.76382,-3.375 0.34562,0 0.70884,1.60313 0.80717,3.5625 0.0983,1.95938 0.30011,6.2625 0.44842,9.5625 0.14831,3.3 0.50611,8.83451 0.79511,12.29892 0.28901,3.4644 0.90131,7.00927 1.36068,7.87749 0.49733,0.93996 1.51072,1.5435 2.50495,1.49184 0.99016,-0.0514 1.84075,0.45209 2.08993,1.23718 0.23111,0.72815 0.44276,3.21294 0.47033,5.52174 0.0439,3.67918 0.23522,4.19783 1.5481,4.19783 1.3139,0 1.46515,0.41242 1.23099,3.35657 -0.26696,3.35657 -0.26696,3.35657 3.11198,3.79095 1.85842,0.23891 4.13832,0.59113 5.06644,0.78272 0.92813,0.19158 1.6875,0.65699 1.6875,1.03423 0,0.37724 -0.92812,0.82753 -2.0625,1.00063 -1.13437,0.1731 1.05938,0.14498 4.875,-0.0625 6.9375,-0.37722 6.9375,-0.37722 6.9375,3.12636 0,3.50358 0,3.50358 -29.62167,3.40822 -29.62166,-0.0954 -29.62166,-0.0954 -24.9375,-3.84938 z"
         id="path24" /><path
         style="display:inline;fill:#f8f8f8;fill-opacity:1"
         d="m 519.35797,530.1395 c 0,-0.17073 2.22303,-2.07934 4.94006,-4.24135 4.08298,-3.24893 5.57938,-3.99235 8.625,-4.285 2.68761,-0.25824 3.71555,-0.68348 3.79804,-1.57115 0.0622,-0.66939 0.0317,-2.21186 -0.0678,-3.42769 -0.15081,-1.84277 -0.002,-2.06225 0.89341,-1.31901 0.59087,0.49038 1.29639,0.66953 1.56781,0.39811 0.27142,-0.27142 0.49349,-2.96849 0.49349,-5.99349 0,-5.17739 0.099,-5.50521 1.6875,-5.58882 0.92813,-0.0488 1.94063,-0.0488 2.25,0 0.30938,0.0488 0.5625,-0.58618 0.5625,-1.41118 0,-0.825 0.32069,-1.5 0.71264,-1.5 0.40053,0 0.69838,-2.99995 0.68008,-6.85003 -0.0198,-4.16392 0.28761,-7.0479 0.78392,-7.35463 0.55593,-0.34359 0.67957,-3.48099 0.38746,-9.83242 -0.23595,-5.1303 -0.18748,-9.0863 0.10771,-8.79112 0.29518,0.29519 0.78355,5.18667 1.08525,10.86996 0.3017,5.68328 0.79714,10.92387 1.10098,11.64574 0.39342,0.93469 0.20551,1.3125 -0.6528,1.3125 -0.66288,0 -1.20524,0.34809 -1.20524,0.77354 0,0.42545 0.50625,0.9678 1.125,1.20524 0.75302,0.28896 1.125,1.47373 1.125,3.58312 0,1.73327 0.42188,3.69829 0.9375,4.3667 0.51563,0.66841 1.78125,1.32354 2.8125,1.45585 1.76035,0.22584 1.87796,0.5178 1.92345,4.77468 0.0267,2.49378 0.29058,4.92591 0.58652,5.40475 0.29594,0.47883 1.07153,0.6659 1.72353,0.41571 0.99755,-0.3828 1.14162,0.0963 0.90888,3.02269 -0.19229,2.41765 0.0293,3.59497 0.72686,3.86266 0.55189,0.21178 2.07271,0.38967 3.3796,0.3953 1.30689,0.006 3.13554,0.21375 4.06366,0.46248 0.92813,0.24872 1.6875,0.75036 1.6875,1.11475 0,0.36439 -0.92812,0.6677 -2.0625,0.67402 -1.13437,0.006 -2.56875,0.35108 -3.1875,0.76615 -0.83268,0.55857 -0.54037,0.65004 1.125,0.35202 1.2375,-0.22145 4.86563,-0.61624 8.0625,-0.87731 5.8125,-0.47468 5.8125,-0.47468 5.8125,3.01149 0,3.48616 0,3.48616 -21.1875,3.39831 -21.1875,-0.0879 -21.1875,-0.0879 -14.8125,-1.37367 3.50625,-0.7072 6.88125,-1.51361 7.5,-1.79204 0.61875,-0.27842 -0.225,-0.3536 -1.875,-0.16705 -1.65,0.18655 -6.83769,1.03251 -11.5282,1.8799 -4.6905,0.84739 -10.34363,1.54071 -12.5625,1.54071 -2.21886,0 -4.0343,-0.13969 -4.0343,-0.31042 z"
         id="path17" /><path
         style="display:inline;fill:#f8f8f8;fill-opacity:1"
         d="m 519.35797,530.1395 c 0,-0.17073 2.20533,-2.06526 4.90073,-4.21006 4.01284,-3.19311 5.60946,-3.98912 8.8125,-4.39359 3.91177,-0.49396 3.91177,-0.49396 3.71066,-3.66494 -0.11061,-1.74405 -0.0179,-3.17099 0.20607,-3.17099 0.22394,0 0.81634,0.92813 1.31644,2.0625 0.8159,1.85072 0.94877,1.33836 1.29394,-4.98972 0.33709,-6.18007 0.57017,-7.11918 1.88466,-7.59365 0.825,-0.29779 1.75313,-0.395 2.0625,-0.21602 0.30938,0.17898 0.5625,-0.34138 0.5625,-1.15635 0,-0.81497 0.36102,-1.6021 0.80226,-1.74918 0.49343,-0.16448 0.80622,-3.00349 0.81254,-7.375 0.007,-4.56826 0.23706,-6.57167 0.64503,-5.60758 0.54898,1.29733 0.64187,1.20444 0.68746,-0.6875 0.029,-1.20312 0.21102,-2.02919 0.4045,-1.83571 0.19349,0.19349 0.43403,1.43099 0.53454,2.75 0.1005,1.31902 0.44844,2.39821 0.7732,2.39821 0.32476,0 0.59047,0.3375 0.59047,0.75 0,0.4125 -0.67786,0.75 -1.50635,0.75 -1.30183,0 -1.38328,0.19708 -0.59989,1.45149 0.49856,0.79832 1.11162,1.32469 1.36236,1.16973 0.25075,-0.15497 0.53747,1.1007 0.63717,2.79037 0.0997,1.68968 0.58637,3.77892 1.08149,4.64277 0.53607,0.93529 1.65869,1.57064 2.77522,1.57064 1.7824,0 1.87912,0.22223 1.95837,4.5 0.0459,2.475 0.13023,4.93667 0.1875,5.47038 0.0573,0.53371 0.69476,0.87121 1.41663,0.75 1.02455,-0.17203 1.36357,0.39667 1.54528,2.59212 0.16001,1.93344 -0.0744,2.81609 -0.75,2.82399 -0.71542,0.008 -0.67672,0.20927 0.14222,0.73851 0.61875,0.39987 2.17969,0.7322 3.46875,0.73852 1.28906,0.006 3.39844,0.22242 4.6875,0.48023 1.28906,0.25781 2.34375,0.76406 2.34375,1.125 0,0.36094 -1.09687,0.68989 -2.4375,0.73101 -1.34062,0.0411 -3.28125,0.37202 -4.3125,0.73533 -1.36751,0.48177 -0.86003,0.56283 1.875,0.29948 2.0625,-0.1986 6.19688,-0.57821 9.1875,-0.84358 5.4375,-0.4825 5.4375,-0.4825 5.4375,3.00076 0,3.48325 0,3.48325 -20.8125,3.40648 -13.26585,-0.0489 -19.86067,-0.30993 -18.1875,-0.71978 1.44375,-0.35365 6.49385,-1.34733 11.22244,-2.20816 4.72859,-0.86084 8.77859,-1.75538 9,-1.98786 0.22141,-0.23248 -1.11619,-0.21555 -2.97244,0.0376 -1.85625,0.25318 -4.3875,0.62997 -5.625,0.83732 -1.2375,0.20735 -6.91309,1.21864 -12.61243,2.24731 -5.69933,1.02867 -12.19621,1.87031 -14.4375,1.87031 -2.24129,0 -4.07507,-0.13969 -4.07507,-0.31042 z"
         id="path13" /><path
         style="fill:#f8f8f8;fill-opacity:1"
         d="m 521.60797,528.09718 c 1.44375,-1.26047 3.93422,-3.1767 5.53438,-4.25829 1.62641,-1.09933 4.43762,-2.14374 6.375,-2.36841 3.46562,-0.4019 3.46562,-0.4019 3.37248,-3.77373 -0.0867,-3.13952 -0.038,-3.22973 0.70729,-1.30933 0.44023,1.13438 1.0601,2.0625 1.37749,2.0625 0.31739,0 0.67411,-3.12187 0.79272,-6.9375 0.21564,-6.9375 0.21564,-6.9375 2.27814,-7.17482 1.45706,-0.16765 2.0625,-0.66301 2.0625,-1.6875 0,-0.7976 0.3375,-1.45018 0.75,-1.45018 0.4125,0 0.75,-1.18125 0.75,-2.625 0,-1.44375 0.32691,-2.625 0.72646,-2.625 0.39956,0 0.51569,-0.59062 0.25807,-1.3125 -0.32432,-0.90878 0.029,-0.75813 1.14854,0.48976 0.88931,0.99124 1.61693,2.56676 1.61693,3.50116 0,0.93439 0.19353,2.20323 0.43007,2.81964 0.23654,0.61641 -0.0166,1.27057 -0.5625,1.4537 -0.54591,0.18313 -0.40194,0.24424 0.31993,0.13581 0.72188,-0.10843 1.3125,0.062 1.3125,0.37864 0,0.31668 0.80419,0.42205 1.78709,0.23416 0.9829,-0.18789 2.011,0.0207 2.28468,0.4635 0.27368,0.44282 0.14358,1.46662 -0.28911,2.27511 -0.54934,1.02644 -0.54881,1.61702 0.002,1.95728 0.50913,0.31465 0.5334,0.79575 0.0685,1.35801 -0.39595,0.4789 -0.54608,1.77618 -0.33361,2.88284 0.21246,1.10667 0.85754,2.19295 1.4335,2.41397 0.57596,0.22101 1.0472,0.055 1.0472,-0.36888 0,-0.4239 0.3375,-0.56214 0.75,-0.3072 0.4125,0.25494 0.75,1.62486 0.75,3.04426 0,1.92868 -0.33162,2.60009 -1.3125,2.65731 -0.72187,0.0421 -0.3,0.36536 0.9375,0.71833 1.2375,0.35298 3.85313,0.84545 5.8125,1.09439 1.95938,0.24894 3.5625,0.70363 3.5625,1.01041 0,0.30679 -2.61562,1.01171 -5.8125,1.56648 -3.19687,0.55478 -6.4875,1.10031 -7.3125,1.2123 -0.825,0.11199 -3.525,0.55498 -6,0.98442 -2.475,0.42945 -8.33769,1.46848 -13.0282,2.30896 -4.6905,0.84048 -10.25925,1.51442 -12.375,1.49766 -3.8468,-0.0305 -3.8468,-0.0305 -1.2218,-2.32226 z"
         id="path6" /><path
         style="fill:#f8f8f8;fill-opacity:1"
         d="m 520.85797,528.86797 c 1.03125,-0.84262 2.60848,-2.15665 3.50496,-2.92005 0.89647,-0.76341 2.5548,-1.994 3.68517,-2.73464 1.13037,-0.74065 3.60314,-1.5262 5.49505,-1.74566 3.43982,-0.39904 3.43982,-0.39904 3.34668,-3.77087 -0.0867,-3.13952 -0.038,-3.22973 0.70729,-1.30933 0.44023,1.13438 1.0601,2.0625 1.37749,2.0625 0.31739,0 0.67411,-3.12187 0.79272,-6.9375 0.21564,-6.9375 0.21564,-6.9375 2.27814,-7.17482 1.45706,-0.16765 2.0625,-0.66301 2.0625,-1.6875 0,-0.7976 0.3375,-1.45018 0.75,-1.45018 0.4125,0 0.75,-1.18125 0.75,-2.625 0,-1.44375 0.32691,-2.625 0.72646,-2.625 0.39956,0 0.51569,-0.59062 0.25807,-1.3125 -0.32432,-0.90878 0.029,-0.75813 1.14854,0.48976 0.88931,0.99124 1.61693,2.56676 1.61693,3.50116 0,0.93439 0.19353,2.20323 0.43007,2.81964 0.23654,0.61641 -0.0166,1.27057 -0.5625,1.4537 -0.54591,0.18313 -0.40194,0.24424 0.31993,0.13581 0.72188,-0.10843 1.3125,0.062 1.3125,0.37864 0,0.31668 0.80419,0.42205 1.78709,0.23416 0.9829,-0.18789 2.011,0.0207 2.28468,0.4635 0.27368,0.44282 0.14358,1.46662 -0.28911,2.27511 -0.54934,1.02644 -0.54881,1.61702 0.002,1.95728 0.50913,0.31465 0.5334,0.79575 0.0685,1.35801 -0.39595,0.4789 -0.54608,1.77618 -0.33361,2.88284 0.21246,1.10667 0.85754,2.19295 1.4335,2.41397 0.57596,0.22101 1.0472,0.055 1.0472,-0.36888 0,-0.4239 0.3375,-0.56214 0.75,-0.3072 0.4125,0.25494 0.75,1.62486 0.75,3.04426 0,1.92868 -0.33162,2.60009 -1.3125,2.65731 -0.72187,0.0421 -0.3,0.36536 0.9375,0.71833 1.2375,0.35298 3.85313,0.84545 5.8125,1.09439 1.95938,0.24894 3.5625,0.70363 3.5625,1.01041 0,0.30679 -2.61562,1.01171 -5.8125,1.56648 -3.19687,0.55478 -6.4875,1.10031 -7.3125,1.2123 -0.825,0.11199 -3.525,0.55498 -6,0.98442 -2.475,0.42945 -8.33769,1.46848 -13.0282,2.30896 -4.6905,0.84048 -10.25925,1.51691 -12.375,1.50319 -3.8468,-0.0249 -3.8468,-0.0249 -1.9718,-1.557 z"
         id="path5" /><path
         style="fill:#f8f8f8;fill-opacity:1"
         d="m 520.85797,528.86797 c 1.03125,-0.84262 2.60848,-2.15665 3.50496,-2.92005 0.89647,-0.76341 2.5548,-1.994 3.68517,-2.73464 1.13037,-0.74065 3.60314,-1.5262 5.49505,-1.74566 3.43982,-0.39904 3.43982,-0.39904 3.34668,-3.77087 -0.0867,-3.13952 -0.038,-3.22973 0.70729,-1.30933 0.44023,1.13438 1.0601,2.0625 1.37749,2.0625 0.31739,0 0.67411,-3.12187 0.79272,-6.9375 0.21564,-6.9375 0.21564,-6.9375 2.27814,-7.17482 1.45706,-0.16765 2.0625,-0.66301 2.0625,-1.6875 0,-0.7976 0.3375,-1.45018 0.75,-1.45018 0.4125,0 0.75,-0.86786 0.75,-1.92857 0,-1.06072 0.53688,-2.46545 1.19306,-3.12164 1.01332,-1.01331 1.29408,-1.03349 1.86352,-0.13392 0.36875,0.58252 0.67562,1.7909 0.68194,2.68529 0.006,0.89439 0.20501,2.13049 0.44155,2.7469 0.23654,0.61641 -0.0166,1.27057 -0.5625,1.4537 -0.54591,0.18313 -0.40194,0.24424 0.31993,0.13581 0.72188,-0.10843 1.3125,0.0377 1.3125,0.32471 0,0.28702 0.89518,0.50855 1.98929,0.49229 1.09411,-0.0163 2.1277,0.37121 2.29687,0.86106 0.16918,0.48984 -0.40081,1.59902 -1.26664,2.46485 -0.86583,0.86583 -1.8761,1.38767 -2.24505,1.15964 -0.36895,-0.22802 -0.89611,-0.0501 -1.17147,0.39548 -0.34605,0.55992 0.39065,0.64317 2.38567,0.26959 2.43035,-0.45509 2.74873,-0.37378 2.01533,0.51467 -0.47906,0.58033 -0.69717,1.96059 -0.4847,3.06725 0.21246,1.10667 0.85754,2.19295 1.4335,2.41397 0.57596,0.22101 1.0472,0.055 1.0472,-0.36888 0,-0.4239 0.3375,-0.56214 0.75,-0.3072 0.4125,0.25494 0.75,1.62486 0.75,3.04426 0,1.92868 -0.33162,2.60009 -1.3125,2.65731 -0.72187,0.0421 -0.3,0.36536 0.9375,0.71833 1.2375,0.35298 3.85313,0.84545 5.8125,1.09439 1.95938,0.24894 3.5625,0.70471 3.5625,1.01283 0,0.30811 -5.48437,1.48663 -12.1875,2.61894 -6.70312,1.1323 -15.73125,2.70358 -20.0625,3.49173 -4.33125,0.78815 -9.73125,1.43397 -12,1.43515 -4.125,0.002 -4.125,0.002 -2.25,-1.52989 z"
         id="path4" /></g></g><g
     inkscape:groupmode="layer"
     id="layer3"
     inkscape:label="Layer 2"
     transform="translate(-84.739304,7.3277907)" /></svg>
